<svg xmlns="http://www.w3.org/2000/svg" width="175" height="32.934" viewBox="0 0 175 32.934">
  <g id="Group_3992" data-name="Group 3992" transform="translate(-264 -101.533)">
    <g id="Artwork_18" data-name="Artwork 18" transform="translate(264 101.533)">
      <g id="Group_79" data-name="Group 79">
        <path id="Path_267" data-name="Path 267" d="M114.4,21.754c0,3.534-1.111,4.982-3.7,4.982-2.221,0-3.062-1.414-3.062-4.275V12.633H97.81l-6.024,6.26V6h-4.78V21.556c-.807-4.291-5.406-5.26-7-5.658-6.025-1.548-7.169-1.784-7.169-3.635,0-2.019,1.952-2.726,3.635-2.726,2.525,0,4.578.74,4.746,3.635h5.116c0-5.553-4.611-7.741-9.626-7.741-4.342,0-8.986,2.356-8.986,7.269,0,4.51,3.6,5.89,7.169,6.832,3.534.942,7.135,1.38,7.135,3.972,0,2.456-2.827,3-4.678,3-2.827,0-5.317-1.245-5.317-4.443H66.913c-.067,5.923,4.914,8.548,10.231,8.548,5.806,0,9.182-2.61,9.862-6.288v5.716h4.78V24.043l1.851-1.784,4.78,7.775H104.2L96.9,19.028l5.958-5.8V23.336c0,4.308,1.278,7.169,6.36,7.169a6.207,6.207,0,0,0,5.318-2.894h.1v2.423h4.543v-17.4H114.4Zm-11.109,7.3c0-.024,0-.024-.026-.047C103.338,28.959,103.316,29.008,103.293,29.057Z" transform="translate(-39.735 -3.225)" fill="#fff"></path>
        <path id="Path_268" data-name="Path 268" d="M156.449,63.5c.022-.049.045-.1-.026-.047C156.448,63.476,156.448,63.476,156.449,63.5Z" transform="translate(-92.891 -37.669)" fill="#fff"></path>
        <path id="Path_269" data-name="Path 269" d="M156.449,63.5c.022-.049.045-.1-.026-.047C156.448,63.476,156.448,63.476,156.449,63.5Z" transform="translate(-92.891 -37.669)" fill="#fff"></path>
        <path id="Path_270" data-name="Path 270" d="M18.761,9.167C17.824,6.618,24.043,0,12.608,0,2.842,0,1.925,9.662,1.5,10.407A8.5,8.5,0,0,0,.1,13.233c-.267,1.242,0,2.62.8,2.62,1.205,0-.268-2.413,1.2-2.413,1.872,0,4.082,3.034,4.683,4.755-1,1.794-2.406,2.964-3.411,2.484A3.055,3.055,0,0,1,1.3,17.921c0-1.11-1.034-1.073-.935.343a5.268,5.268,0,0,0,2.408,4.068,13.049,13.049,0,0,1,3.678,4.617c.457,1.132,1.069,1.656,2.743,1.656s.4,1.448,1.538,1.448.47-1.588,1.137-1.588,0,1.518,1.272,1.518c1.938,0,1.069-2.412,1.673-2.827s8.961-4.827,8.826-10.27C23.509,11.513,19.7,11.718,18.761,9.167ZM10.6,24.539c-.468-.552-2.342-.622-3.077-.344s-1.471-.139-.868-2a10.345,10.345,0,0,1,1.2-2.688s3.946,4.276,4.012,4.828S11.067,25.09,10.6,24.539Zm5.684-3.1a4.482,4.482,0,1,1,4.351-4.482A4.415,4.415,0,0,1,16.284,21.436Z" transform="translate(0)" fill="#fff"></path>
        <path id="Path_271" data-name="Path 271" d="M351.12,13.47l-3.8,11.914h-.067L343.312,13.47H338.8V6.84h-4.779v8.75h-.067A5.987,5.987,0,0,0,328.806,13c-4.45,0-6.988,3.287-7.574,7.221v-.052c0-4.308-1.279-7.169-6.361-7.169a6.206,6.206,0,0,0-5.318,2.894h-.1V13.47h-4.544v17.4h4.778V21.749c0-3.534,1.112-4.981,3.7-4.981,2.221,0,3.063,1.414,3.063,4.274V30.87h4.779V23.878c.582,4.053,3.11,7.463,7.674,7.463a5.778,5.778,0,0,0,5.285-2.692h.067V30.87H338.8V15.084l5.52,14.709c.539,1.38,0,3.1-1.649,3.265a25.469,25.469,0,0,1-2.794-.168v3.937a28.3,28.3,0,0,0,2.928.168c3.3,0,4.948-1.144,5.991-3.938l7.269-19.588Zm-21.036,14.27c-2.962,0-4.207-2.861-4.207-5.587,0-2.861,1.077-5.553,4.207-5.553,3.1,0,4.107,2.692,4.107,5.52C334.191,24.98,333.248,27.741,330.084,27.741Z" transform="translate(-181.068 -4.062)" fill="#fff"></path>
        <path id="Path_272" data-name="Path 272" d="M248.213,17.946c0-4.173-4.174-4.947-7.64-4.947-3.835,0-7.759,1.306-8.152,5.6-.764-3.762-4.254-5.6-8.037-5.6-5,0-8.1,3.13-8.751,7.6V6.84h-4.78V30.87h4.78V24.092a8.327,8.327,0,0,0,8.649,7.25c3.583,0,6.313-1.552,7.624-4.435.36,3.025,2.827,4.435,5.873,4.435a7.98,7.98,0,0,0,5.857-2.154,7.082,7.082,0,0,0,.336,1.683h4.847A8.9,8.9,0,0,1,248.213,27Zm-4.779,6.193c0,1.043-.135,4.005-3.87,4.005-1.548,0-2.928-.438-2.928-2.221,0-1.75,1.346-2.255,2.827-2.558,1.482-.269,3.164-.3,3.972-1.01Zm-5.655-3.3c-2.405.328-4.81,1.011-5.629,3.365h-4.1c-.3,2.121-1.582,3.534-3.8,3.534-3,0-3.972-3-3.972-5.486,0-2.558,1.01-5.655,4.073-5.655a3.26,3.26,0,0,1,3.534,3h4.678c-.019-.266-.051-.524-.093-.774h4.7c.168-1.885,1.346-2.625,3.164-2.625,1.683,0,3.1.3,3.1,2.356C243.434,20.5,240.708,20.4,237.779,20.841Z" transform="translate(-125.214 -4.062)" fill="#fff"></path>
        <rect id="Rectangle_97" data-name="Rectangle 97" width="4.779" height="24.03" transform="translate(80.154 2.778)" fill="#fff"></rect>
      </g>
    </g>
  </g>
</svg>
